<svg x="0px" y="0px" viewBox="0 0 826.5 466.5" xml:space="preserve" id="teaser">
<g>
	<path d="M26.6,90c-1.6,6.8-4,15.3-4.2,16.6h-8.5c0.6-4.2,0.9-11.4,0.9-24.9V19.8c0-3.1-0.5-4-2.1-4H3.9V7.1H12
		C18.8,7.1,26,6.3,29,5.7v43.6c4.8-10.8,14.1-17.2,27-17.2c20.1,0,32.8,15,32.8,38.1c0,23.1-13.2,38.2-33.4,38.2
		C41.4,108.5,31.4,101.4,26.6,90z M74.1,71.3v-2c0-17.7-9-27.4-22.6-27.4C38.3,41.9,29,51.8,29,69.3v2c0,17.4,9.4,27.4,22.5,27.4
		C65.1,98.7,74.1,89,74.1,71.3z"/>
	<path d="M119.4,49.5c3.7-12.4,11.5-17.4,20.1-17.4c10.3,0,16.2,6.6,16.2,15.7c0,7.6-4.3,12.6-10.8,12.6c-4.4,0-8-3.6-8-7.8
		c0-3.6,2.5-6.9,6.3-7.8c-0.8-1.5-2.8-3.3-6.6-3.3c-11.4,0-16.9,11.4-16.9,28.5v24.4c0,3,0.8,3.4,2.1,3.4h9.1v8.7H94.8V98h8.4
		c1.5,0,2.2-0.4,2.2-3.4V46.7c0-3.1-0.6-4-2.2-4h-8.7v-8.7h8.1c6.9,0,13.6-0.8,16.8-1.4V49.5z"/>
	<path d="M177.8,44.9c2.4,1.5,3.9,4.2,3.9,7.6c0,5.2-3.9,8.7-9,8.7c-5.8,0-9.6-3.8-9.6-10c0-12.7,14.7-19,31.9-19
		c20.8,0,30,7.3,30,25v37.3c0,2.4,0.6,3.4,2.1,3.4h8.2v8.7h-21.3c-1.5-4-2.2-8.1-3-14.2c-4,9.4-15,16-27.4,16
		c-13.6,0-22.3-8.2-22.3-19.2c0-17.2,16.9-24,49.5-27.9v-4c0-11.5-5.5-16.3-17.8-16.3C185.9,41,180.9,42.3,177.8,44.9z M210.8,74.7
		v-6c-23.7,2.7-35.7,6.9-35.7,18.3c0,7.2,5.4,12,13.5,12C201.9,99,210.8,89.1,210.8,74.7z"/>
	<path d="M264.3,49.5c4.8-11.4,13.8-17.4,25.6-17.4c15.3,0,23.1,8.7,23.1,25.9v36.4c0,3,0.8,3.4,2.2,3.4h8.4v8.7h-34.8V98h7.8
		c1.4,0,2.1-0.4,2.1-3.4v-36c0-11.2-4.2-16.3-14.1-16.3c-12.3,0-20.2,10.3-20.2,29.5v22.8c0,3,0.8,3.4,2.2,3.4h7.9v8.7h-35.1V98h8.4
		c1.5,0,2.2-0.4,2.2-3.4V46.7c0-3.1-0.6-4-2.2-4h-8.4v-8.7h8.1c6.8,0,13.5-0.8,16.6-1.4V49.5z"/>
	<path d="M328.2,70.2c0-22.9,13.5-38.1,33.4-38.1c12.7,0,21.7,6,26.4,16.3V19.8c0-3.1-0.5-4-2.1-4h-8.7V7.1h8.4
		c6.9,0,13.6-0.8,16.6-1.4v88.8c0,3,0.9,3.4,2.2,3.4h8.2v8.7h-23.1c-0.3-2.7-0.8-9.1-1-15.3c-4.5,10.6-13.6,17.1-27,17.1
		C341.4,108.5,328.2,93.3,328.2,70.2z M388.1,71.3v-2c0-17.4-9.3-27.4-22.3-27.4c-13.6,0-22.6,9.7-22.6,27.4v2
		c0,17.7,9,27.4,22.6,27.4C378.9,98.7,388.1,88.8,388.1,71.3z"/>
	<path d="M418.8,83.1h11.1v14.1c3.6,1.6,9.3,2.9,16.2,2.9c10.5,0,16.9-3.9,16.9-11.8c0-8.5-8.2-10.6-18.9-12.7
		c-12.6-2.4-25.3-6.1-25.3-21c0-13.3,10.8-22.3,29.4-22.3c10.2,0,19.9,3,25.8,6.1V57h-11.1V43.7c-3-1.8-8.4-3.1-14.4-3.1
		c-10.5,0-16.5,4.2-16.5,11.4c0,8.8,8.5,10,18.9,12c13.2,2.5,25.3,6.7,25.3,21.6c0,13.8-10.9,22.9-30,22.9c-10.5,0-20.5-3-27.4-6.4
		V83.1z"/>
</g>
<g>
	<path d="M6.2,208h8.5c1.3,0,2.1-0.6,2.1-3.5v-45.9c0-4.6-0.8-6-3.3-6H6.2v-8.7h8.1c6.9,0,13.6-0.8,16.8-1.3v61.9
		c0,2.8,0.8,3.5,2.1,3.5h8.2v8.7H6.2V208z M14.1,123.8c0-5.2,3.9-9.6,9.6-9.6c5.5,0,9.6,4.3,9.6,9.6c0,5.4-4,9.7-9.6,9.7
		C18,133.6,14.1,129.2,14.1,123.8z"/>
	<path d="M47.9,180.2c0-22.9,13.5-38.1,33.4-38.1c12.7,0,21.7,6,26.4,16.3v-28.6c0-3.1-0.5-4-2.1-4h-8.7v-8.7h8.4
		c6.9,0,13.6-0.8,16.6-1.3v88.8c0,3,0.9,3.5,2.2,3.5h8.2v8.7h-23.1c-0.3-2.7-0.8-9.1-1-15.3c-4.5,10.6-13.7,17.1-27,17.1
		C61.1,218.5,47.9,203.3,47.9,180.2z M107.7,181.3v-2c0-17.4-9.3-27.4-22.3-27.4c-13.6,0-22.6,9.7-22.6,27.4v2
		c0,17.7,9,27.4,22.6,27.4C98.6,208.7,107.7,198.8,107.7,181.3z"/>
	<path d="M150.8,182.8c0.3,15.4,8.7,26.5,24.4,26.5c12.6,0,19.6-6.4,22.9-16.9l8.7,3.6c-3.6,12.8-13.9,22.5-32.7,22.5
		c-24.3,0-37.9-16-37.9-38.2c0-22.3,15-38.1,36.9-38.1c21.6,0,34.3,14.2,34.3,37v3.6H150.8z M150.8,174.8h42.4
		c-0.3-15.9-7.2-23.8-20.1-23.8C159.8,151,151.8,159.5,150.8,174.8z"/>
	<path d="M232.2,154.9c2.4,1.5,3.9,4.2,3.9,7.6c0,5.2-3.9,8.7-9,8.7c-5.8,0-9.6-3.8-9.6-10c0-12.8,14.7-19,31.9-19
		c20.8,0,30,7.3,30,25v37.3c0,2.4,0.6,3.5,2.1,3.5h8.2v8.7h-21.3c-1.5-4-2.2-8.1-3-14.2c-4,9.4-15,16-27.4,16
		c-13.6,0-22.3-8.2-22.3-19.2c0-17.2,16.9-24,49.5-27.9v-4c0-11.5-5.5-16.3-17.8-16.3C240.3,151,235.4,152.3,232.2,154.9z
		 M265.2,184.7v-6c-23.7,2.7-35.7,6.9-35.7,18.3c0,7.2,5.4,12,13.5,12C256.4,209,265.2,199.1,265.2,184.7z"/>
	<path d="M294.2,193.1h11.1v14.1c3.6,1.6,9.3,2.8,16.2,2.8c10.5,0,16.9-3.9,16.9-11.8c0-8.5-8.2-10.6-18.9-12.7
		c-12.6-2.4-25.3-6.2-25.3-21c0-13.3,10.8-22.3,29.4-22.3c10.2,0,19.9,3,25.8,6.1V167h-11.1v-13.3c-3-1.8-8.4-3.2-14.4-3.2
		c-10.5,0-16.5,4.2-16.5,11.4c0,8.8,8.5,10,18.9,12c13.2,2.5,25.3,6.8,25.3,21.6c0,13.8-10.9,22.9-30,22.9c-10.5,0-20.5-3-27.4-6.4
		V193.1z"/>
</g>
<g>
	<path d="M5.1,343.8h8.4c1.5,0,2.2-0.5,2.2-3.5v-73.6c0-3.1-0.6-4-2.2-4H4.8v-8.7h8.2c6.9,0,13.6-0.8,16.6-1.3V270
		c4.6-11.1,13.9-17.8,27.1-17.8c20.1,0,32.8,15,32.8,38.1c0,23.1-13.2,38.2-33.3,38.2c-12.9,0-21.7-6.6-26.4-16.8v28.6
		c0,3,0.8,3.5,2.1,3.5h8.5v8.7H5.1V343.8z M75,291.3v-2c0-17.7-9-27.3-22.6-27.3c-13.2,0-22.3,9.8-22.3,27.3v2
		c0,17.4,9.3,27.1,22.3,27.1C66,318.4,75,309,75,291.3z"/>
	<path d="M111.6,292.8c0.3,15.4,8.7,26.5,24.4,26.5c12.6,0,19.6-6.5,22.9-16.9l8.7,3.6c-3.6,12.8-13.9,22.5-32.7,22.5
		c-24.3,0-37.9-16-37.9-38.2c0-22.3,15-38.1,36.9-38.1c21.6,0,34.3,14.2,34.3,37v3.6H111.6z M111.6,284.8h42.4
		c-0.3-15.9-7.2-23.8-20.1-23.8C120.6,261,112.7,269.5,111.6,284.8z"/>
	<path d="M175.2,290.2c0-22.5,15.3-38.1,37.8-38.1c21.9,0,36.9,15.4,36.9,38.1c0,22.6-15.1,38.2-37.5,38.2
		C190.2,328.5,175.2,313,175.2,290.2z M235.7,291v-1.4c0-18.4-8.2-28.3-22.9-28.3c-14.8,0-23.1,10-23.1,28.3v1.4
		c0,18.3,8.1,28.3,22.9,28.3C227.4,319.3,235.7,309.1,235.7,291z"/>
	<path d="M254.6,343.8h8.4c1.5,0,2.2-0.5,2.2-3.5v-73.6c0-3.1-0.6-4-2.2-4h-8.7v-8.7h8.2c6.9,0,13.6-0.8,16.6-1.3V270
		c4.6-11.1,13.9-17.8,27.1-17.8c20.1,0,32.8,15,32.8,38.1c0,23.1-13.2,38.2-33.3,38.2c-12.9,0-21.7-6.6-26.4-16.8v28.6
		c0,3,0.8,3.5,2.1,3.5h8.5v8.7h-35.5V343.8z M324.5,291.3v-2c0-17.7-9-27.3-22.6-27.3c-13.2,0-22.3,9.8-22.3,27.3v2
		c0,17.4,9.3,27.1,22.3,27.1C315.5,318.4,324.5,309,324.5,291.3z"/>
	<path d="M343.7,318h8.5c1.2,0,2.1-0.5,2.1-3.5v-74.7c0-3.1-0.6-4-2.1-4h-8.8v-8.7h8.4c6.9,0,13.6-0.8,16.8-1.3v88.8
		c0,3,0.8,3.5,2.1,3.5h8.2v8.7h-35.2V318z"/>
	<path d="M398.1,292.8c0.3,15.4,8.7,26.5,24.4,26.5c12.6,0,19.6-6.5,22.9-16.9l8.7,3.6c-3.6,12.8-13.9,22.5-32.7,22.5
		c-24.3,0-37.9-16-37.9-38.2c0-22.3,15-38.1,36.9-38.1c21.6,0,34.3,14.2,34.3,37v3.6H398.1z M398.1,284.8h42.4
		c-0.3-15.9-7.2-23.8-20.1-23.8C407.1,261,399.2,269.5,398.1,284.8z"/>
</g>
<g>
	<path d="M21.5,402.8c0.3,15.4,8.7,26.5,24.4,26.5c12.6,0,19.6-6.5,22.9-16.9l8.7,3.6c-3.6,12.8-13.9,22.5-32.7,22.5
		c-24.3,0-37.9-16-37.9-38.2c0-22.3,15-38.1,36.9-38.1c21.6,0,34.3,14.2,34.3,37v3.6H21.5z M21.5,394.8h42.4
		c-0.3-15.9-7.2-23.8-20.1-23.8C30.5,371,22.5,379.5,21.5,394.8z"/>
	<path d="M81.9,428h6.5c1.6,0,2.4-0.9,4.3-3.2l20.8-24.9l-19.5-24.1c-1.6-2.1-2.7-3.2-4.2-3.2h-6v-8.7h34.9v8.7h-7c-1,0-2.5,0.8-1,3
		l13.3,17.4l14.1-17.4c1.2-1.6,0.5-3-1-3h-6.6v-8.7h29.7v8.7H153c-1.8,0-2.2,0.9-4.2,3.2l-19.3,22.9l21.3,25.8
		c1.6,2.1,2.7,3.5,4.2,3.5h5.8v8.7h-34.6V428h6.8c1.3,0,2.8-1.1,1.2-3.2L119,405.5l-15.8,19.3c-1.2,1.5-0.3,3.2,1.1,3.2h6.7v8.7
		H81.9V428z"/>
	<path d="M164.3,453.8h8.4c1.5,0,2.2-0.5,2.2-3.5v-73.6c0-3.1-0.6-4-2.2-4H164v-8.7h8.2c6.9,0,13.6-0.8,16.6-1.3V380
		c4.6-11.1,13.9-17.8,27.1-17.8c20.1,0,32.8,15,32.8,38.1c0,23.1-13.2,38.2-33.3,38.2c-12.9,0-21.7-6.6-26.4-16.8v28.6
		c0,3,0.8,3.5,2.1,3.5h8.5v8.7h-35.5V453.8z M234.2,401.3v-2c0-17.7-9-27.3-22.6-27.3c-13.2,0-22.3,9.8-22.3,27.3v2
		c0,17.4,9.3,27.1,22.3,27.1C225.2,428.4,234.2,419,234.2,401.3z"/>
	<path d="M270.8,402.8c0.3,15.4,8.7,26.5,24.4,26.5c12.6,0,19.6-6.5,22.9-16.9l8.7,3.6c-3.6,12.8-13.9,22.5-32.7,22.5
		c-24.3,0-37.9-16-37.9-38.2c0-22.3,15-38.1,36.9-38.1c21.6,0,34.3,14.2,34.3,37v3.6H270.8z M270.8,394.8h42.4
		c-0.3-15.9-7.2-23.8-20.1-23.8C279.8,371,271.8,379.5,270.8,394.8z"/>
	<path d="M358.4,379.5c3.7-12.5,11.5-17.4,20.1-17.4c10.3,0,16.2,6.6,16.2,15.7c0,7.7-4.3,12.6-10.8,12.6c-4.4,0-8-3.6-8-7.8
		c0-3.6,2.5-6.9,6.3-7.8c-0.8-1.5-2.8-3.3-6.6-3.3c-11.4,0-16.9,11.4-16.9,28.5v24.4c0,3,0.8,3.5,2.1,3.5h9.1v8.7h-36.1V428h8.4
		c1.5,0,2.2-0.5,2.2-3.5v-47.8c0-3.1-0.6-4-2.2-4h-8.7v-8.7h8.1c6.9,0,13.6-0.8,16.8-1.3V379.5z"/>
	<path d="M399.2,428h8.5c1.3,0,2.1-0.6,2.1-3.5v-45.9c0-4.6-0.8-6-3.3-6h-7.3v-8.7h8.1c6.9,0,13.6-0.8,16.8-1.3v61.9
		c0,2.8,0.8,3.5,2.1,3.5h8.2v8.7h-35.2V428z M407.1,343.8c0-5.2,3.9-9.6,9.6-9.6c5.5,0,9.6,4.4,9.6,9.6c0,5.4-4,9.8-9.6,9.8
		C411,353.6,407.1,349.2,407.1,343.8z"/>
	<path d="M455.3,402.8c0.3,15.4,8.7,26.5,24.4,26.5c12.6,0,19.6-6.5,22.9-16.9l8.7,3.6c-3.6,12.8-13.9,22.5-32.7,22.5
		c-24.3,0-37.9-16-37.9-38.2c0-22.3,15-38.1,36.9-38.1c21.6,0,34.3,14.2,34.3,37v3.6H455.3z M455.3,394.8h42.4
		c-0.3-15.9-7.2-23.8-20.1-23.8C464.3,371,456.3,379.5,455.3,394.8z"/>
	<path d="M542.7,379.5c4.8-11.4,13.8-17.4,25.6-17.4c15.3,0,23.1,8.7,23.1,25.9v36.4c0,3,0.8,3.5,2.2,3.5h8.4v8.7h-34.8V428h7.8
		c1.4,0,2.1-0.5,2.1-3.5v-36c0-11.2-4.2-16.3-14.1-16.3c-12.3,0-20.2,10.3-20.2,29.5v22.8c0,3,0.8,3.5,2.2,3.5h7.9v8.7H518V428h8.4
		c1.5,0,2.2-0.5,2.2-3.5v-47.8c0-3.1-0.6-4-2.2-4H518v-8.7h8.1c6.8,0,13.5-0.8,16.6-1.3V379.5z"/>
	<path d="M665.7,381.9c-2.4-6.9-8.8-10.9-19.9-10.9c-15.4,0-24.7,10.3-24.7,27.9v1.8c0,17.7,8.4,28.5,24,28.5
		c12.3,0,20.1-5.7,23.4-16.9l8.5,3.6c-3.9,13.3-14.1,22.6-32.4,22.6c-23.8,0-38.1-14.7-38.1-38.4c0-23.1,15.1-37.9,38.7-37.9
		c19.6,0,32.4,9.9,32.4,25.2c0,7.5-4.5,12.6-10.9,12.6c-5.2,0-9-3.8-9-8.7S660.8,382.7,665.7,381.9z"/>
	<path d="M697.1,402.8c0.3,15.4,8.7,26.5,24.4,26.5c12.6,0,19.6-6.5,22.9-16.9l8.7,3.6c-3.6,12.8-13.9,22.5-32.7,22.5
		c-24.3,0-37.9-16-37.9-38.2c0-22.3,15-38.1,36.9-38.1c21.6,0,34.3,14.2,34.3,37v3.6H697.1z M697.1,394.8h42.4
		c-0.3-15.9-7.2-23.8-20.1-23.8C706.1,371,698.1,379.5,697.1,394.8z"/>
	<path d="M761.7,413.1h11.1v14.1c3.6,1.6,9.3,2.8,16.2,2.8c10.5,0,16.9-3.9,16.9-11.8c0-8.5-8.2-10.6-18.9-12.8
		c-12.6-2.4-25.3-6.1-25.3-21c0-13.3,10.8-22.3,29.4-22.3c10.2,0,19.9,3,25.8,6.1V387h-11.1v-13.3c-3-1.8-8.4-3.2-14.4-3.2
		c-10.5,0-16.5,4.2-16.5,11.4c0,8.8,8.5,10,18.9,12c13.2,2.5,25.3,6.8,25.3,21.6c0,13.8-10.9,22.9-30,22.9c-10.5,0-20.5-3-27.4-6.4
		V413.1z"/>
</g>
</svg>